<svg width="100px" height="80px" viewBox="0 0 100 80" version="1.1" xmlns="http://www.w3.org/2000/svg" xmlns:xlink="http://www.w3.org/1999/xlink">
    <g id="cvrcek-mini" stroke="none" stroke-width="1" fill="none" fill-rule="evenodd">
        <path d="M72.09,66.046 C71.3579963,67.1440055 70.4735052,68.1809951 69.4365,69.157 C68.3994948,70.1330049 67.1998401,70.9869963 65.8375,71.719 C64.4751599,72.4510037 62.9705082,73.0304979 61.3235,73.4575 C59.6764918,73.8845021 57.8770098,74.098 55.925,74.098 C52.6716504,74.098 49.6623472,73.5286724 46.897,72.39 C44.1316528,71.2513276 41.7526766,69.6755101 39.76,67.6625 C37.7673234,65.6494899 36.2118389,63.2603472 35.0935,60.495 C33.9751611,57.7296528 33.416,54.7000165 33.416,51.406 C33.416,48.1119835 33.9853276,45.0823472 35.124,42.317 C36.2626724,39.5516528 37.8384899,37.1625101 39.8515,35.1495 C41.8645101,33.1364899 44.2434863,31.5606724 46.9885,30.422 C49.7335137,29.2833276 52.7123173,28.714 55.925,28.714 C57.5110079,28.714 59.0664924,28.876665 60.5915,29.202 C62.1165076,29.527335 63.5499933,29.9848304 64.892,30.5745 C66.2340067,31.1641696 67.4539945,31.8758292 68.552,32.7095 C69.6500055,33.5431708 70.5649963,34.4886614 71.297,35.546 L67.637,38.23 C67.1896644,37.5386632 66.5898371,36.8473368 65.8375,36.156 C65.0851629,35.4646632 64.2006717,34.8546693 63.184,34.326 C62.1673282,33.7973307 61.0591727,33.370335 59.8595,33.045 C58.6598273,32.719665 57.3686736,32.557 55.986,32.557 C53.179986,32.557 50.6688444,33.0653283 48.4525,34.082 C46.2361556,35.0986718 44.3553411,36.471158 42.81,38.1995 C41.2646589,39.927842 40.0853374,41.9306553 39.272,44.208 C38.4586626,46.4853447 38.052,48.8846541 38.052,51.406 C38.052,53.9273459 38.4688292,56.3266553 39.3025,58.604 C40.1361708,60.8813447 41.3256589,62.884158 42.871,64.6125 C44.4163411,66.340842 46.2971556,67.7133283 48.5135,68.73 C50.7298444,69.7466718 53.2206528,70.255 55.986,70.255 C58.4666791,70.255 60.8253221,69.7466718 63.062,68.73 C65.2986778,67.7133283 67.1693258,66.0866779 68.674,63.85 L72.09,66.046 Z M58.243,26.396 L53.363,26.396 L46.714,17.612 L50.74,17.612 L55.803,24.2 L60.866,17.612 L64.892,17.612 L58.243,26.396 Z" id="Č" fill="#ffffff" transform="translate(52.753000, 45.855000) scale(-1, 1) translate(-52.753000, -45.855000) "></path>
        <polygon id="V" fill="#ffffff" points="51.936 61 49.542 61 45.79 51.088 48.478 51.088 50.774 58.116 50.83 58.116 53.112 51.088 55.758 51.088"></polygon>
        <path d="M62.36,61.984 C61.8319974,62.776004 61.1940037,63.5239965 60.446,64.228 C59.6979963,64.9320035 58.8326716,65.5479974 57.85,66.076 C56.8673284,66.6040026 55.7820059,67.0219985 54.594,67.33 C53.4059941,67.6380015 52.108007,67.792 50.7,67.792 C48.3533216,67.792 46.1826766,67.3813374 44.188,66.56 C42.1933234,65.7386626 40.4773405,64.6020073 39.04,63.15 C37.6026595,61.6979927 36.4806707,59.9746766 35.674,57.98 C34.8673293,55.9853234 34.464,53.8000119 34.464,51.424 C34.464,49.0479881 34.8746626,46.8626766 35.696,44.868 C36.5173374,42.8733234 37.6539927,41.1500073 39.106,39.698 C40.5580073,38.2459927 42.2739901,37.1093374 44.254,36.288 C46.2340099,35.4666626 48.3826551,35.056 50.7,35.056 C51.8440057,35.056 52.9659945,35.1733322 54.066,35.408 C55.1660055,35.6426678 56.1999952,35.9726645 57.168,36.398 C58.1360048,36.8233355 59.015996,37.3366637 59.808,37.938 C60.600004,38.5393363 61.2599974,39.2213295 61.788,39.984 L59.148,41.92 C58.8253317,41.4213308 58.3926694,40.9226692 57.85,40.424 C57.3073306,39.9253308 56.669337,39.4853352 55.936,39.104 C55.202663,38.7226648 54.4033377,38.4146678 53.538,38.18 C52.6726623,37.9453322 51.7413383,37.828 50.744,37.828 C48.7199899,37.828 46.9086747,38.194663 45.31,38.928 C43.7113253,39.661337 42.3546722,40.6513271 41.24,41.898 C40.1253278,43.1446729 39.2746696,44.5893251 38.688,46.232 C38.1013304,47.8746749 37.808,49.6053242 37.808,51.424 C37.808,53.2426758 38.1086637,54.9733251 38.71,56.616 C39.3113363,58.2586749 40.1693278,59.7033271 41.284,60.95 C42.3986722,62.1966729 43.7553253,63.186663 45.354,63.92 C46.9526747,64.653337 48.7493234,65.02 50.744,65.02 C52.5333423,65.02 54.2346586,64.653337 55.848,63.92 C57.4613414,63.186663 58.8106612,62.0133414 59.896,60.4 L62.36,61.984 Z" id="C" fill="#ffffff"></path>
        <g id="Group-3" transform="translate(44.000000, 45.000000)" fill="#ffffff">
            <circle id="Oval" cx="2" cy="2" r="2"></circle>
            <circle id="Oval-Copy" cx="11" cy="2" r="2"></circle>
        </g>
        <g id="Group-2" transform="translate(3.000000, 5.000000)" fill="#ffffff">
            <circle id="Oval-Copy-3" cx="3" cy="11" r="3"></circle>
            <path d="M36.6267223,10.9999908 C32.9778965,6.14220923 27.1685316,3 20.6252644,3 C14.0819935,3 8.27262574,6.14221279 4.62380038,10.9999991 L1,11 L1.0000062,10.9999899 C5.04304712,4.40195354 12.3200901,0 20.6252644,0 C28.9304387,0 36.2074817,4.40195354 40.2505227,10.9999899 L36.6267223,10.9999908 Z" id="Combined-Shape"></path>
        </g>
        <g id="Group" transform="translate(56.000000, 5.000000)" fill="#ffffff">
            <circle id="Oval-Copy-4" cx="37" cy="11" r="3"></circle>
            <path d="M35.6267223,10.9999908 C31.9778965,6.14220923 26.1685316,3 19.6252644,3 C13.0819935,3 7.27262574,6.14221279 3.62380038,10.9999991 L-5.19584376e-14,11 L6.19795623e-06,10.9999899 C4.04304712,4.40195354 11.3200901,0 19.6252644,0 C27.9304387,0 35.2074817,4.40195354 39.2505227,10.9999899 L35.6267223,10.9999908 Z" id="Combined-Shape-Copy"></path>
        </g>
    </g>
</svg>